<?xml version="1.0" encoding="UTF-8" standalone="no"?>
<!DOCTYPE svg PUBLIC "-//W3C//DTD SVG 1.1//EN" "http://www.w3.org/Graphics/SVG/1.1/DTD/svg11.dtd">
<svg width="100%" height="100%" viewBox="0 0 20 20" version="1.1" xmlns="http://www.w3.org/2000/svg" xmlns:xlink="http://www.w3.org/1999/xlink" xml:space="preserve" xmlns:serif="http://www.serif.com/" style="fill-rule:evenodd;clip-rule:evenodd;stroke-linejoin:round;stroke-miterlimit:2;">
    <path d="M10,1.802C12.67,1.802 12.987,1.812 14.042,1.861C16.752,1.984 18.017,3.27 18.141,5.96C18.189,7.014 18.198,7.33 18.198,10C18.198,12.672 18.188,12.988 18.141,14.042C18.017,16.729 16.754,18.017 14.041,18.141C12.987,18.189 12.671,18.199 10,18.199C7.33,18.199 7.013,18.189 5.96,18.141C3.242,18.017 1.983,16.725 1.86,14.041C1.812,12.987 1.802,12.671 1.802,10C1.802,7.33 1.812,7.014 1.86,5.96C1.984,3.27 3.247,1.983 5.96,1.86C7.014,1.812 7.33,1.802 10,1.802ZM10,0C7.284,0 6.944,0.012 5.877,0.06C2.246,0.227 0.227,2.242 0.061,5.877C0.01,6.944 0,7.284 0,10C0,12.716 0.012,13.057 0.06,14.123C0.227,17.755 2.242,19.773 5.877,19.94C6.944,19.988 7.284,20 10,20C12.716,20 13.057,19.988 14.123,19.94C17.752,19.773 19.775,17.758 19.939,14.123C19.989,13.057 20,12.716 20,10C20,7.284 19.988,6.944 19.94,5.878C19.777,2.249 17.76,0.228 14.124,0.06C13.057,0.01 12.716,0 10,0ZM10,4.865C7.183,4.865 4.865,7.183 4.865,10C4.865,12.817 7.183,15.135 10,15.135C12.817,15.135 15.135,12.817 15.135,10C15.135,7.183 12.817,4.865 10,4.865ZM10,13.333C8.172,13.333 6.667,11.828 6.667,10C6.667,8.172 8.172,6.667 10,6.667C11.828,6.667 13.333,8.172 13.333,10C13.333,11.828 11.828,13.333 10,13.333ZM15.338,3.463C14.68,3.463 14.138,4.005 14.138,4.663C14.138,5.321 14.68,5.863 15.338,5.863C15.996,5.863 16.538,5.321 16.538,4.663C16.538,4.005 15.996,3.463 15.338,3.463Z" style="fill:rgb(39,83,80);fill-rule:nonzero;"/>
</svg>
