<?xml version="1.0" encoding="UTF-8" standalone="no"?>
<!DOCTYPE svg PUBLIC "-//W3C//DTD SVG 1.1//EN" "http://www.w3.org/Graphics/SVG/1.1/DTD/svg11.dtd">
<svg width="100%" height="100%" viewBox="0 0 20 17" version="1.1" xmlns="http://www.w3.org/2000/svg" xmlns:xlink="http://www.w3.org/1999/xlink" xml:space="preserve" xmlns:serif="http://www.serif.com/" style="fill-rule:evenodd;clip-rule:evenodd;stroke-linejoin:round;stroke-miterlimit:2;">
    <path d="M20,2.172C19.251,2.504 18.457,2.722 17.643,2.818C18.5,2.306 19.142,1.499 19.448,0.548C18.642,1.026 17.761,1.363 16.842,1.544C16.067,0.716 14.981,0.246 13.847,0.248C11.197,0.248 9.251,2.72 9.849,5.285C6.552,5.12 3.475,3.562 1.392,1C0.31,2.865 0.87,5.28 2.662,6.478C2.011,6.458 1.374,6.282 0.804,5.965C0.759,7.865 2.122,9.644 4.095,10.04C3.491,10.204 2.857,10.228 2.242,10.11C2.778,11.777 4.324,12.927 6.075,12.959C4.356,14.307 2.169,14.919 -0,14.658C1.876,15.863 4.06,16.503 6.29,16.501C13.908,16.501 18.213,10.067 17.953,4.296C18.756,3.715 19.449,2.996 20,2.172Z" style="fill:rgb(39,83,80);fill-rule:nonzero;"/>
</svg>
